<svg xmlns="http://www.w3.org/2000/svg" version="1.0" viewBox="0 0 192 192"><path fill="#FFF" d="M0 96v96h192V4l-4-2c-3.8-2-5.4-2-47-1.8L98 .5l18.3 10.2c10 5.6 19.1 10.9 20.2 11.8 1.9 1.5 1.9 1.5-1 .8-5.3-1.4-19.7-.7-26 1.1-3.3 1-9.2 3.4-13.1 5.3l-7.2 3.6-12.7-6.5c-7-3.6-12.7-6.9-12.7-7.4 0-.4 6.2-4.6 13.8-9.2C85.3 5.7 92.2 1.5 93 1c.9-.6-15.9-1-45.7-1H0v96zm66.5-67c5.5 3.4 11.1 6.9 12.4 7.9l2.3 1.8-10.9 10.9c-6 6-14.2 15.3-18.3 20.8-6.6 8.9-7.5 9.7-8.6 8.1-2.1-2.9-5.4-13.8-6.3-20.7l-.7-6.3-1.8 7.9c-2.1 9.1-1.8 18.1.9 26.7l1.8 5.5-8.1 14.5c-4.4 7.9-9.3 17-10.8 20.1-1.6 3.2-3.2 5.8-3.6 5.8-.4 0-.8-18.9-.8-42V48.1l20.8-12.5C46.2 28.8 55.7 23.1 56 23.1c.3-.1 5 2.6 10.5 5.9zm94.1 6.6c8.5 4.7 15.4 8.8 15.4 9 0 .9-9.4 17-16.8 28.8l-7.5 11.8-2.5-3.3c-5.7-7.6-25.3-25.8-35.5-32.9-12.2-8.5-12.2-7.7-.7-13.4 7.2-3.7 14.3-6.2 21.1-7.5 9.3-1.8 10.4-1.6 26.5 7.5zm-59.5 17.3c11.7 8.8 25.6 21.9 33.8 31.7C139.3 90 143 95 143 95.8c0 3.4-22 28.8-34.1 39.3-7.2 6.2-5.9 6.5-21.6-5.9-11.8-9.4-25.4-22.8-32.2-31.5L50.8 92l4.3-5.8C60.7 78.8 91.4 48 93.3 48c.8 0 4.3 2.2 7.8 4.9zm78.7 89.7c-.7.6-9.4 6-19.4 11.8l-18.1 10.7-7.4-4.2c-4.1-2.3-10.2-6-13.7-8.2l-6.3-4 5.5-4.9c6.7-5.9 20.1-21.8 25.3-29.9 2.1-3.3 4.3-5.7 4.8-5.6 2.1.7 6.7 15.1 7.4 23.1l.7 8.1 1.9-6c2.7-8.6 2.6-20.9-.3-30.4l-2.3-7.3 10.8-21.5 10.8-21.4.8 44.2c.5 35 .4 44.6-.5 45.5zM46.5 107c5.1 7.4 22.8 23.4 34.8 31.5 6.4 4.3 11.7 8.1 11.7 8.4 0 .9-9.6 6.5-15.4 9-7.1 3.1-15.6 5.1-22.1 5.2-7 .2-5.5 1.4 4.3 3.4 13.4 2.9 25.7 1.1 39.2-5.7l8.5-4.3 14.4 7.1 14.3 7.1-18.3 10.8c-10.1 5.9-18.7 11-19.1 11.2-.7.3-80-43.8-82-45.6C15.6 144 41.1 103 43 103c.4 0 2 1.8 3.5 4z"/><path fill="#CCF" d="M134 65.4c0 .2.8 1 1.8 1.7 1.5 1.3 1.6 1.2.3-.4s-2.1-2.1-2.1-1.3zm-15 3c0 .2.8 1 1.8 1.7 1.5 1.3 1.6 1.2.3-.4s-2.1-2.1-2.1-1.3zm20 2c0 .2.8 1 1.8 1.7 1.5 1.3 1.6 1.2.3-.4s-2.1-2.1-2.1-1.3zM128.5 78c1 1.1 2 2 2.3 2 .3 0-.3-.9-1.3-2s-2-2-2.3-2c-.3 0 .3.9 1.3 2zm22.1 6.2c.3.5 1 .6 1.5.3 1.3-.9 1.1-1.2-.6-1.2-.8 0-1.2.4-.9.9zM68 112.5c1.3 1.4 2.6 2.5 2.8 2.5.3 0-.5-1.1-1.8-2.5s-2.6-2.5-2.8-2.5c-.3 0 .5 1.1 1.8 2.5zM14.3 121c0 4.7.2 6.6.4 4.2.2-2.3.2-6.1 0-8.5-.2-2.3-.4-.4-.4 4.3zm166 2c0 4.1.2 5.8.4 3.7.2-2 .2-5.4 0-7.5-.2-2-.4-.3-.4 3.8zM58 120.4c0 .2.8 1 1.8 1.7 1.5 1.3 1.6 1.2.3-.4s-2.1-2.1-2.1-1.3z"/><path fill="#36C" d="M61.9 56.7c-1.3 1.6-1.2 1.7.4.4.9-.7 1.7-1.5 1.7-1.7 0-.8-.8-.3-2.1 1.3zm13.1 8-6.5 6.8 6.8-6.5c3.7-3.5 6.7-6.6 6.7-6.7 0-.8-1 .2-7 6.4zM32.2 68c0 1.4.2 1.9.5 1.2.2-.6.2-1.8 0-2.5-.3-.6-.5-.1-.5 1.3zm-.1 5.6c0 1.1.3 1.4.6.6.3-.7.2-1.6-.1-1.9-.3-.4-.6.2-.5 1.3zM179.3 80c0 4.1.2 5.8.4 3.7.2-2 .2-5.4 0-7.5-.2-2-.4-.3-.4 3.8zm-50.4 55.7c-1.3 1.6-1.2 1.7.4.4.9-.7 1.7-1.5 1.7-1.7 0-.8-.8-.3-2.1 1.3zm-9 9c-1.3 1.6-1.2 1.7.4.4 1.6-1.3 2.1-2.1 1.3-2.1-.2 0-1 .8-1.7 1.7zm-50.1 22c1.2.2 3.2.2 4.5 0 1.2-.2.2-.4-2.3-.4s-3.5.2-2.2.4z"/><path fill="#069" d="M120.8 21.7c.7.3 1.6.2 1.9-.1.4-.3-.2-.6-1.3-.5-1.1 0-1.4.3-.6.6zm6 0c.7.3 1.6.2 1.9-.1.4-.3-.2-.6-1.3-.5-1.1 0-1.4.3-.6.6zm8.7 44.3c1 1.1 2 2 2.3 2 .3 0-.3-.9-1.3-2s-2-2-2.3-2c-.3 0 .3.9 1.3 2zm-12 8c3.3 3.3 6.2 6 6.4 6 .3 0-2.1-2.7-5.4-6-3.3-3.3-6.2-6-6.4-6-.3 0 2.1 2.7 5.4 6zm17-3c1 1.1 2 2 2.3 2 .3 0-.3-.9-1.3-2s-2-2-2.3-2c-.3 0 .3.9 1.3 2zm38.9 31c0 5.8.1 8.1.3 5.2.2-2.8.2-7.6 0-10.5-.2-2.8-.3-.5-.3 5.3zM66 109.3c0 .2 1.5 1.6 3.3 3.3l3.2 2.9-2.9-3.3c-2.8-3-3.6-3.7-3.6-2.9zM52.5 116c1 1.1 2 2 2.3 2 .3 0-.3-.9-1.3-2s-2-2-2.3-2c-.3 0 .3.9 1.3 2zm110.6-.4c0 1.1.3 1.4.6.6.3-.7.2-1.6-.1-1.9-.3-.4-.6.2-.5 1.3zm-39.7 3.6-1.9 2.3 2.3-1.9c2.1-1.8 2.7-2.6 1.9-2.6-.2 0-1.2 1-2.3 2.2zM58.5 122c1 1.1 2 2 2.3 2 .3 0-.3-.9-1.3-2s-2-2-2.3-2c-.3 0 .3.9 1.3 2zm104.6-.4c0 1.1.3 1.4.6.6.3-.7.2-1.6-.1-1.9-.3-.4-.6.2-.5 1.3zm-5.9 13.9c0 1.6.2 2.2.5 1.2.2-.9.2-2.3 0-3-.3-.6-.5.1-.5 1.8zM55.8 160.7c.7.3 1.6.2 1.9-.1.4-.3-.2-.6-1.3-.5-1.1 0-1.4.3-.6.6z"/><path fill="#9CC" d="M141.8 27.7c.6.2 1.8.2 2.5 0 .6-.3.1-.5-1.3-.5-1.4 0-1.9.2-1.2.5zM14.2 106c0 1.4.2 1.9.5 1.2.2-.6.2-1.8 0-2.5-.3-.6-.5-.1-.5 1.3zm166 30c0 1.4.2 1.9.5 1.2.2-.6.2-1.8 0-2.5-.3-.6-.5-.1-.5 1.3z"/><path fill="red" d="M187.1.4c.2.2 1.4.9 2.7 1.5 1.8 1 2.2.9 2.2-.4 0-1-.9-1.5-2.7-1.5-1.4 0-2.4.2-2.2.4z"/><path fill="#CFF" d="M180.2 114c0 1.4.2 1.9.5 1.2.2-.6.2-1.8 0-2.5-.3-.6-.5-.1-.5 1.3zm-124.7 4c1 1.1 2 2 2.3 2 .3 0-.3-.9-1.3-2s-2-2-2.3-2c-.3 0 .3.9 1.3 2zm-41.4 12.6c0 1.1.3 1.4.6.6.3-.7.2-1.6-.1-1.9-.3-.4-.6.2-.5 1.3z"/><path fill="#039" d="M80.5 9.6c-7.7 4.7-14.5 8.8-15.2 9.2-.7.4 3.8 3.2 11.4 7.1l12.5 6.4 7.2-3.6c10.7-5.3 17.8-7.1 28.2-7.1l9-.1-18.2-10.2C105.3 5.6 96.5 1 95.8 1.1c-.7 0-7.6 3.9-15.3 8.5zM35.3 36.3 15 48.5v82l6.1-11.5c3.3-6.3 8.1-15.1 10.6-19.4l4.6-7.9-1.8-5.6c-3.5-11.1-2.6-28 2-36.1 1.3-2.4 1.4-2.1 1.5 4 0 7 1.6 13.9 4.6 20.8l1.9 4.3 6-8.3c3.3-4.6 11.3-13.7 17.7-20.3 6.4-6.5 11.6-12 11.5-12.1-.9-.9-23.2-14.4-23.6-14.3-.3 0-9.7 5.6-20.8 12.2zm99.7-7.6c-5.6.9-15.9 4.7-23.3 8.5l-7.7 4 7 4.9c15.5 10.6 28 21.6 36.7 32.3l4 4.9 4.7-7.2c5.8-9 18.8-31.3 18.4-31.5-.2-.1-6.9-3.9-15-8.4-14.9-8.4-16.6-8.9-24.8-7.5zM86.3 54.9c-8.5 7.3-21 20.3-28.7 29.8L51.8 92l5 6.3c9.9 12.3 41.8 40.7 45.9 40.7 3.3 0 39.3-39.4 39.3-43 0-2.1-9.4-13-20.7-24.1C110.7 61.5 95.7 49 94 49c-.5 0-4 2.6-7.7 5.9zm82.4 21.2-9.8 19.7 1.9 6.4c4.1 13.1 3.6 25.9-1.3 36.3l-2.3 5-.1-7.5c-.1-7.9-1.7-15.6-4.8-22.8l-1.8-4.2-7 9.7c-3.8 5.3-11.5 14.3-17 19.9-9.4 9.7-9.9 10.4-8 11.6 1.1.6 6.9 4 12.8 7.5l10.9 6.3 18.9-11.2 18.9-11.2-.6-42.5c-.4-23.4-.7-42.6-.8-42.6 0-.1-4.5 8.8-9.9 19.6zM41.8 105.8c-2.4 2.8-9.4 13.4-17.4 26.4L17 144.4l14.1 7.9 14.1 8 7.7-.1c11.5 0 24.2-4 36-11.3l3.4-2.1-6.3-4c-15.2-9.6-32.8-24.9-39.7-34.5-2.8-3.9-3.2-4.1-4.5-2.5zm59.5 53c-12.6 7-28 9.6-40.8 6.9-3.8-.8-7.1-1.4-7.2-1.3-.1.1 9.9 5.9 22.3 13l22.6 12.7 17.1-10.1c9.5-5.6 17.5-10.5 17.9-10.9.4-.3-5.3-3.5-12.7-7.1l-13.3-6.5-5.9 3.3z"/><path fill="#9CF" d="M124 73.5c1.3 1.4 2.6 2.5 2.8 2.5.3 0-.5-1.1-1.8-2.5s-2.6-2.5-2.8-2.5c-.3 0 .5 1.1 1.8 2.5zm-109.8 37c0 1.6.2 2.2.5 1.2.2-.9.2-2.3 0-3-.3-.6-.5.1-.5 1.8zm166 21.5c0 1.4.2 1.9.5 1.2.2-.6.2-1.8 0-2.5-.3-.6-.5-.1-.5 1.3zm0 8c0 1.4.2 1.9.5 1.2.2-.6.2-1.8 0-2.5-.3-.6-.5-.1-.5 1.3z"/><path fill="#69C" d="M72.9 45.7c-1.3 1.6-1.2 1.7.4.4.9-.7 1.7-1.5 1.7-1.7 0-.8-.8-.3-2.1 1.3zM14.4 73.5c0 14.3.2 20 .3 12.7.2-7.3.2-19 0-26-.1-7-.3-1-.3 13.3zm51-20.3-1.9 2.3 2.3-1.9c2.1-1.8 2.7-2.6 1.9-2.6-.2 0-1.2 1-2.3 2.2zm113.4 1.5c-.2.5 0 4.8.3 9.8l.5 9 .2-9.8c.2-8.7-.1-11.1-1-9zm-111.9 18c-1.3 1.6-1.2 1.7.4.4.9-.7 1.7-1.5 1.7-1.7 0-.8-.8-.3-2.1 1.3zm49.5 54.5-2.9 3.3 3.3-2.9c3-2.8 3.7-3.6 2.9-3.6-.2 0-1.6 1.5-3.3 3.2zm8 13-2.9 3.3 3.3-2.9c1.7-1.7 3.2-3.1 3.2-3.3 0-.8-.8-.1-3.6 2.9zm32.6.9c0 .5.5.7 1 .4.6-.3 1-.8 1-1.1 0-.2-.4-.4-1-.4-.5 0-1 .5-1 1.1z"/><path fill="#369" d="M123.8 21.7c.7.3 1.6.2 1.9-.1.4-.3-.2-.6-1.3-.5-1.1 0-1.4.3-.6.6zm55.4 67.8c0 1.6.2 2.2.5 1.2.2-.9.2-2.3 0-3-.3-.6-.5.1-.5 1.8zm-16.1 29.1c0 1.1.3 1.4.6.6.3-.7.2-1.6-.1-1.9-.3-.4-.6.2-.5 1.3z"/><path fill="#99C" d="m69.4 49.2-1.9 2.3 2.3-1.9c2.1-1.8 2.7-2.6 1.9-2.6-.2 0-1.2 1-2.3 2.2zm-55.2 52.3c0 1.6.2 2.2.5 1.2.2-.9.2-2.3 0-3-.3-.6-.5.1-.5 1.8z"/><path fill="#66C" d="M37.1 54.6c0 1.1.3 1.4.6.6.3-.7.2-1.6-.1-1.9-.3-.4-.6.2-.5 1.3z"/></svg>