<?xml version="1.0" encoding="UTF-8"?>
<svg xmlns="http://www.w3.org/2000/svg" xmlns:xlink="http://www.w3.org/1999/xlink" width="720.25pt" height="126.48pt" viewBox="0 0 720.25 126.48" version="1.1">
<defs>
<clipPath id="clip1">
  <path d="M 692 8 L 720.25 8 L 720.25 14 L 692 14 Z M 692 8 "/>
</clipPath>
<clipPath id="clip2">
  <path d="M 0 113 L 14 113 L 14 126.480469 L 0 126.480469 Z M 0 113 "/>
</clipPath>
<clipPath id="clip3">
  <path d="M 16 113 L 31 113 L 31 126.480469 L 16 126.480469 Z M 16 113 "/>
</clipPath>
<clipPath id="clip4">
  <path d="M 35 113 L 47 113 L 47 126.480469 L 35 126.480469 Z M 35 113 "/>
</clipPath>
<clipPath id="clip5">
  <path d="M 50 113 L 62 113 L 62 126.480469 L 50 126.480469 Z M 50 113 "/>
</clipPath>
<clipPath id="clip6">
  <path d="M 64 113 L 77 113 L 77 126.480469 L 64 126.480469 Z M 64 113 "/>
</clipPath>
<clipPath id="clip7">
  <path d="M 92 113 L 108 113 L 108 126.480469 L 92 126.480469 Z M 92 113 "/>
</clipPath>
<clipPath id="clip8">
  <path d="M 111 113 L 126 113 L 126 126.480469 L 111 126.480469 Z M 111 113 "/>
</clipPath>
<clipPath id="clip9">
  <path d="M 130 113 L 132 113 L 132 126.480469 L 130 126.480469 Z M 130 113 "/>
</clipPath>
<clipPath id="clip10">
  <path d="M 135 113 L 151 113 L 151 126.480469 L 135 126.480469 Z M 135 113 "/>
</clipPath>
<clipPath id="clip11">
  <path d="M 153 113 L 165 113 L 165 126.480469 L 153 126.480469 Z M 153 113 "/>
</clipPath>
<clipPath id="clip12">
  <path d="M 169 113 L 184 113 L 184 126.480469 L 169 126.480469 Z M 169 113 "/>
</clipPath>
<clipPath id="clip13">
  <path d="M 187 113 L 203 113 L 203 126.480469 L 187 126.480469 Z M 187 113 "/>
</clipPath>
<clipPath id="clip14">
  <path d="M 207 113 L 209 113 L 209 126.480469 L 207 126.480469 Z M 207 113 "/>
</clipPath>
<clipPath id="clip15">
  <path d="M 212 113 L 227 113 L 227 126.480469 L 212 126.480469 Z M 212 113 "/>
</clipPath>
<clipPath id="clip16">
  <path d="M 231 113 L 233 113 L 233 126.480469 L 231 126.480469 Z M 231 113 "/>
</clipPath>
<clipPath id="clip17">
  <path d="M 248 113 L 262 113 L 262 126.480469 L 248 126.480469 Z M 248 113 "/>
</clipPath>
<clipPath id="clip18">
  <path d="M 265 113 L 281 113 L 281 126.480469 L 265 126.480469 Z M 265 113 "/>
</clipPath>
<clipPath id="clip19">
  <path d="M 284 113 L 296 113 L 296 126.480469 L 284 126.480469 Z M 284 113 "/>
</clipPath>
<clipPath id="clip20">
  <path d="M 295 113 L 311 113 L 311 126.480469 L 295 126.480469 Z M 295 113 "/>
</clipPath>
<clipPath id="clip21">
  <path d="M 320 113 L 335 113 L 335 126.480469 L 320 126.480469 Z M 320 113 "/>
</clipPath>
<clipPath id="clip22">
  <path d="M 337 113 L 349 113 L 349 126.480469 L 337 126.480469 Z M 337 113 "/>
</clipPath>
<clipPath id="clip23">
  <path d="M 352 113 L 368 113 L 368 126.480469 L 352 126.480469 Z M 352 113 "/>
</clipPath>
<clipPath id="clip24">
  <path d="M 371 113 L 386 113 L 386 126.480469 L 371 126.480469 Z M 371 113 "/>
</clipPath>
<clipPath id="clip25">
  <path d="M 400 113 L 419 113 L 419 126.480469 L 400 126.480469 Z M 400 113 "/>
</clipPath>
<clipPath id="clip26">
  <path d="M 422 113 L 438 113 L 438 126.480469 L 422 126.480469 Z M 422 113 "/>
</clipPath>
<clipPath id="clip27">
  <path d="M 441 113 L 456 113 L 456 126.480469 L 441 126.480469 Z M 441 113 "/>
</clipPath>
<clipPath id="clip28">
  <path d="M 458 113 L 474 113 L 474 126.480469 L 458 126.480469 Z M 458 113 "/>
</clipPath>
<clipPath id="clip29">
  <path d="M 484 113 L 498 113 L 498 126.480469 L 484 126.480469 Z M 484 113 "/>
</clipPath>
<clipPath id="clip30">
  <path d="M 501 113 L 517 113 L 517 126.480469 L 501 126.480469 Z M 501 113 "/>
</clipPath>
<clipPath id="clip31">
  <path d="M 519 113 L 535 113 L 535 126.480469 L 519 126.480469 Z M 519 113 "/>
</clipPath>
<clipPath id="clip32">
  <path d="M 538 113 L 550 113 L 550 126.480469 L 538 126.480469 Z M 538 113 "/>
</clipPath>
<clipPath id="clip33">
  <path d="M 552 113 L 568 113 L 568 126.480469 L 552 126.480469 Z M 552 113 "/>
</clipPath>
<clipPath id="clip34">
  <path d="M 579 113 L 591 113 L 591 126.480469 L 579 126.480469 Z M 579 113 "/>
</clipPath>
<clipPath id="clip35">
  <path d="M 593 113 L 609 113 L 609 126.480469 L 593 126.480469 Z M 593 113 "/>
</clipPath>
<clipPath id="clip36">
  <path d="M 612 113 L 632 113 L 632 126.480469 L 612 126.480469 Z M 612 113 "/>
</clipPath>
<clipPath id="clip37">
  <path d="M 635 113 L 649 113 L 649 126.480469 L 635 126.480469 Z M 635 113 "/>
</clipPath>
<clipPath id="clip38">
  <path d="M 652 113 L 667 113 L 667 126.480469 L 652 126.480469 Z M 652 113 "/>
</clipPath>
<clipPath id="clip39">
  <path d="M 670 113 L 685 113 L 685 126.480469 L 670 126.480469 Z M 670 113 "/>
</clipPath>
</defs>
<g id="surface1">
<path style=" stroke:none;fill-rule:nonzero;fill:rgb(50.59967%,50.999451%,52.49939%);fill-opacity:1;" d="M 271.613281 64.136719 L 278.945313 36.359375 C 275.183594 36.984375 269.761719 37.90625 262.863281 39.089844 C 258.925781 39.765625 255.171875 40.414063 252.277344 40.914063 L 246.453125 62.902344 C 244.390625 70.683594 237.347656 76.101563 229.296875 76.101563 L 177.636719 76.101563 C 172.273438 76.101563 168.363281 71.023438 169.738281 65.839844 L 172.460938 55.566406 C 162.371094 57.667969 151.964844 59.957031 145.554688 61.382813 L 143.785156 68.09375 C 139.605469 83.929688 149.054688 96.765625 164.890625 96.765625 L 218.226563 96.765625 C 227.554688 92.523438 253.277344 80.949219 266.867188 76.039063 C 268.886719 72.417969 270.484375 68.425781 271.613281 64.136719 "/>
<path style=" stroke:none;fill-rule:nonzero;fill:rgb(50.59967%,50.999451%,52.49939%);fill-opacity:1;" d="M 26.398438 98.113281 L 28.464844 90.304688 C 18.007813 93.167969 7.023438 96.277344 0.585938 98.113281 "/>
<path style=" stroke:none;fill-rule:nonzero;fill:rgb(50.59967%,50.999451%,52.49939%);fill-opacity:1;" d="M 75.5625 78.167969 L 100.488281 98.113281 L 142.320313 98.113281 L 106.4375 70.707031 C 95.835938 73.019531 83.566406 76.101563 75.5625 78.167969 "/>
<path style=" stroke:none;fill-rule:nonzero;fill:rgb(50.59967%,50.999451%,52.49939%);fill-opacity:1;" d="M 272.535156 76.566406 L 266.742188 96.769531 L 292.613281 96.769531 L 300.261719 70.113281 L 363.746094 70.113281 C 383.597656 70.113281 401.570313 59.808594 409.785156 41.886719 C 393.886719 44.371094 361.085938 50.902344 331.914063 58.472656 C 307.003906 64.941406 281.027344 73.65625 272.535156 76.566406 "/>
<path style=" stroke:none;fill-rule:nonzero;fill:rgb(50.59967%,50.999451%,52.49939%);fill-opacity:1;" d="M 387.101563 1.257813 L 294.136719 1.257813 L 285.144531 32.613281 C 288.28125 32.128906 295.316406 31.050781 311.199219 28.617188 L 312.277344 28.453125 L 313.972656 22.304688 L 354.800781 22.304688 C 373.335938 19.773438 394.980469 17.023438 410.902344 15.621094 C 406.964844 7.410156 398.71875 1.257813 387.101563 1.257813 "/>
<path style=" stroke:none;fill-rule:nonzero;fill:rgb(50.59967%,50.999451%,52.49939%);fill-opacity:1;" d="M 540.855469 5.414063 L 541.765625 1.453125 L 419.695313 1.453125 L 416.535156 15.222656 C 422.863281 14.265625 441.929688 11.683594 479.238281 8.90625 C 515.261719 6.222656 534.019531 5.570313 540.855469 5.414063 "/>
<path style=" stroke:none;fill-rule:nonzero;fill:rgb(50.59967%,50.999451%,52.49939%);fill-opacity:1;" d="M 536.160156 23.9375 C 532.507813 24.246094 514.828125 26.292969 511.984375 26.597656 L 535.617188 26.597656 "/>
<path style=" stroke:none;fill-rule:nonzero;fill:rgb(50.59967%,50.999451%,52.49939%);fill-opacity:1;" d="M 442.726563 98.785156 L 468.597656 98.785156 L 487.121094 30.363281 C 478.578125 31.3125 466.902344 33.019531 460.257813 34.019531 "/>
<path style=" stroke:none;fill-rule:nonzero;fill:rgb(50.59967%,50.999451%,52.49939%);fill-opacity:1;" d="M 570.675781 1.480469 L 546.257813 1.480469 L 545.269531 5.089844 L 571.03125 4.332031 Z M 570.675781 1.480469 "/>
<path style=" stroke:none;fill-rule:nonzero;fill:rgb(50.59967%,50.999451%,52.49939%);fill-opacity:1;" d="M 600.90625 70.964844 L 577.316406 21.03125 C 564.914063 22.105469 545.675781 23.851563 539.984375 24.371094 L 519.589844 98.785156 L 545.460938 98.785156 L 560.613281 40.316406 L 584.394531 90.664063 L 606.402344 90.664063 L 608.996094 88.089844 L 657.746094 39.621094 L 642.097656 98.785156 L 667.972656 98.785156 L 689.9375 15.730469 C 679.191406 15.949219 661.746094 16.582031 655.371094 16.816406 "/>
<path style=" stroke:none;fill-rule:nonzero;fill:rgb(50.59967%,50.999451%,52.49939%);fill-opacity:1;" d="M 667.691406 2.015625 L 665.207031 5.597656 L 692.367188 6.539063 L 693.550781 2.066406 L 693.566406 2.015625 "/>
<path style=" stroke:none;fill-rule:nonzero;fill:rgb(92.89856%,12.199402%,14.898682%);fill-opacity:1;" d="M 233.183594 98.238281 C 248.640625 98.238281 259.703125 91.675781 266.742188 79.042969 C 253.625 83.242188 230.441406 92.902344 220.277344 98.238281 "/>
<path style=" stroke:none;fill-rule:nonzero;fill:rgb(92.89856%,12.199402%,14.898682%);fill-opacity:1;" d="M 146.519531 57.726563 C 153.371094 56.207031 163.652344 53.957031 173.421875 51.9375 L 187.179688 -0.00390625 L 161.753906 -0.00390625 "/>
<path style=" stroke:none;fill-rule:nonzero;fill:rgb(92.89856%,12.199402%,14.898682%);fill-opacity:1;" d="M 279.699219 33.507813 L 288.210938 1.257813 L 262.78125 1.257813 L 253.035156 38.054688 C 255.730469 37.589844 259 37.027344 262.40625 36.441406 C 270.175781 35.105469 275.957031 34.125 279.699219 33.507813 "/>
<path style=" stroke:none;fill-rule:nonzero;fill:rgb(92.89856%,12.199402%,14.898682%);fill-opacity:1;" d="M 154.585938 1.34375 L 113.144531 1.34375 L 41.550781 40.820313 L 51.992188 1.34375 L 26.117188 1.34375 L 1.519531 94.351563 C 8.523438 92.359375 19.371094 89.300781 29.457031 86.554688 L 39.339844 49.1875 L 72.285156 75.546875 C 79.476563 73.675781 91.804688 70.539063 102.945313 68.039063 L 72.65625 44.90625 "/>
<path style=" stroke:none;fill-rule:nonzero;fill:rgb(92.89856%,12.199402%,14.898682%);fill-opacity:1;" d="M 311.484375 31.292969 C 303.636719 32.496094 288.65625 34.785156 284.328125 35.460938 L 273.214844 74.203125 C 282.875 70.914063 307.621094 62.695313 331.410156 56.523438 C 345.074219 52.972656 359.535156 49.65625 372.699219 46.871094 L 307.195313 46.871094 "/>
<path style=" stroke:none;fill-rule:nonzero;fill:rgb(92.89856%,12.199402%,14.898682%);fill-opacity:1;" d="M 356.242188 24.820313 L 380.109375 24.820313 C 385.371094 24.820313 389.1875 29.832031 387.789063 34.90625 L 387.3125 36.636719 C 386.261719 40.464844 383.667969 43.542969 380.320313 45.289063 C 392.863281 42.730469 403.699219 40.765625 410.722656 39.703125 C 411.421875 37.957031 412.042969 36.148438 412.554688 34.269531 C 414.023438 28.910156 413.765625 23.285156 411.976563 18.226563 C 396.335938 19.570313 374.832031 22.289063 356.242188 24.820313 "/>
<path style=" stroke:none;fill-rule:nonzero;fill:rgb(92.89856%,12.199402%,14.898682%);fill-opacity:1;" d="M 415.886719 18.039063 L 414.320313 24.863281 L 462.738281 24.863281 L 461.027344 31.1875 C 468.121094 30.125 479.664063 28.457031 487.878906 27.574219 L 488.613281 24.863281 L 511.816406 24.863281 C 515.691406 24.171875 523.535156 23.003906 537.078125 21.875 L 540.238281 8.117188 C 532.941406 8.300781 514.304688 8.988281 479.4375 11.585938 C 439.742188 14.542969 420.796875 17.269531 415.886719 18.039063 "/>
<path style=" stroke:none;fill-rule:nonzero;fill:rgb(92.89856%,12.199402%,14.898682%);fill-opacity:1;" d="M 544.527344 7.800781 L 540.742188 21.601563 C 547.246094 21.011719 564.753906 19.421875 576.503906 18.402344 L 572.003906 6.992188 "/>
<path style=" stroke:none;fill-rule:nonzero;fill:rgb(92.89856%,12.199402%,14.898682%);fill-opacity:1;" d="M 657.703125 14.039063 C 665.703125 13.746094 681.238281 13.207031 690.199219 13 L 691.390625 8.503906 L 664.3125 7 "/>
<g clip-path="url(#clip1)" clip-rule="nonzero">
<path style=" stroke:none;fill-rule:nonzero;fill:rgb(92.89856%,12.199402%,14.898682%);fill-opacity:1;" d="M 693.566406 8.480469 L 692.449219 13.101563 L 720.253906 11.171875 C 712.441406 9.910156 693.566406 8.480469 693.566406 8.480469 "/>
</g>
<g clip-path="url(#clip2)" clip-rule="nonzero">
<path style=" stroke:none;fill-rule:nonzero;fill:rgb(50.59967%,50.999451%,52.49939%);fill-opacity:1;" d="M 5.042969 119.554688 L 13.503906 126.238281 C 13.492188 126.238281 13.484375 126.257813 13.484375 126.296875 C 13.484375 126.417969 13.421875 126.480469 13.300781 126.480469 L 11.175781 126.480469 L 3.503906 120.367188 L 1.640625 120.367188 L 1.640625 126.296875 C 1.640625 126.417969 1.578125 126.480469 1.457031 126.480469 L 0.183594 126.480469 C 0.0625 126.480469 0 126.417969 0 126.296875 L 0 113.867188 C 0 113.730469 0.0625 113.664063 0.183594 113.664063 L 1.457031 113.664063 C 1.578125 113.664063 1.640625 113.730469 1.640625 113.867188 L 1.640625 118.824219 L 3.460938 118.824219 L 11.339844 113.664063 L 13.382813 113.664063 C 13.519531 113.664063 13.585938 113.730469 13.585938 113.867188 C 13.585938 113.894531 13.578125 113.925781 13.566406 113.96875 "/>
</g>
<g clip-path="url(#clip3)" clip-rule="nonzero">
<path style=" stroke:none;fill-rule:nonzero;fill:rgb(50.59967%,50.999451%,52.49939%);fill-opacity:1;" d="M 29.332031 119.496094 C 29.332031 118.804688 29.304688 118.210938 29.25 117.710938 C 29.195313 117.214844 29.09375 116.820313 28.945313 116.539063 C 28.757813 115.984375 28.332031 115.632813 27.671875 115.484375 C 27.144531 115.351563 26.125 115.285156 24.613281 115.285156 L 22.667969 115.285156 C 21.15625 115.285156 20.132813 115.351563 19.589844 115.484375 C 18.945313 115.632813 18.503906 115.984375 18.277344 116.539063 C 18.019531 117.132813 17.890625 118.117188 17.890625 119.496094 L 17.890625 120.605469 C 17.890625 121.984375 18.019531 122.972656 18.277344 123.5625 C 18.519531 124.101563 18.964844 124.449219 19.609375 124.597656 C 20.136719 124.730469 21.15625 124.800781 22.667969 124.800781 L 24.613281 124.800781 C 26.109375 124.800781 27.125 124.730469 27.648438 124.597656 C 28.3125 124.449219 28.742188 124.101563 28.945313 123.5625 C 29.09375 123.28125 29.195313 122.890625 29.25 122.390625 C 29.304688 121.890625 29.332031 121.296875 29.332031 120.605469 Z M 30.828125 122.8125 C 30.746094 123.449219 30.613281 123.976563 30.421875 124.394531 C 30.222656 124.800781 29.953125 125.144531 29.613281 125.4375 C 29.277344 125.726563 28.878906 125.9375 28.417969 126.074219 L 28.417969 126.09375 C 28.027344 126.214844 27.523438 126.308594 26.902344 126.378906 C 26.28125 126.445313 25.523438 126.480469 24.632813 126.480469 L 22.667969 126.480469 C 20.617188 126.480469 19.195313 126.292969 18.398438 125.914063 C 17.507813 125.519531 16.90625 124.800781 16.59375 123.746094 C 16.484375 123.355469 16.410156 122.808594 16.359375 122.105469 C 16.316406 121.40625 16.289063 120.535156 16.289063 119.496094 C 16.289063 118.644531 16.328125 117.902344 16.402344 117.265625 C 16.476563 116.632813 16.609375 116.113281 16.796875 115.707031 C 17 115.304688 17.265625 114.957031 17.597656 114.664063 C 17.925781 114.375 18.335938 114.148438 18.824219 113.988281 L 18.84375 113.988281 C 19.597656 113.730469 20.875 113.601563 22.667969 113.601563 L 24.632813 113.601563 C 26.601563 113.601563 28.019531 113.796875 28.886719 114.1875 C 29.316406 114.378906 29.683594 114.65625 29.988281 115.019531 C 30.292969 115.382813 30.519531 115.835938 30.667969 116.375 C 30.746094 116.753906 30.816406 117.292969 30.867188 117.996094 C 30.921875 118.699219 30.949219 119.570313 30.949219 120.605469 C 30.949219 121.445313 30.910156 122.179688 30.828125 122.8125 "/>
</g>
<g clip-path="url(#clip4)" clip-rule="nonzero">
<path style=" stroke:none;fill-rule:nonzero;fill:rgb(50.59967%,50.999451%,52.49939%);fill-opacity:1;" d="M 35.503906 126.480469 C 35.382813 126.480469 35.324219 126.417969 35.324219 126.296875 L 35.324219 113.867188 C 35.324219 113.730469 35.382813 113.664063 35.503906 113.664063 L 36.78125 113.664063 C 36.902344 113.664063 36.964844 113.730469 36.964844 113.867188 L 36.964844 124.820313 L 45.894531 124.820313 C 46.015625 124.820313 46.074219 124.878906 46.074219 125 L 46.074219 126.296875 C 46.074219 126.417969 46.015625 126.480469 45.894531 126.480469 "/>
</g>
<g clip-path="url(#clip5)" clip-rule="nonzero">
<path style=" stroke:none;fill-rule:nonzero;fill:rgb(50.59967%,50.999451%,52.49939%);fill-opacity:1;" d="M 50.371094 126.480469 C 50.25 126.480469 50.1875 126.417969 50.1875 126.296875 L 50.1875 113.867188 C 50.1875 113.730469 50.25 113.664063 50.371094 113.664063 L 61.183594 113.664063 C 61.289063 113.664063 61.34375 113.730469 61.34375 113.867188 L 61.34375 115.140625 C 61.34375 115.277344 61.289063 115.34375 61.183594 115.34375 L 51.828125 115.34375 L 51.828125 119.046875 L 60.878906 119.046875 C 60.988281 119.046875 61.039063 119.117188 61.039063 119.25 L 61.039063 120.527344 C 61.039063 120.664063 60.988281 120.730469 60.878906 120.730469 L 51.828125 120.730469 L 51.828125 124.820313 L 61.183594 124.820313 C 61.289063 124.820313 61.34375 124.878906 61.34375 125 L 61.34375 126.296875 C 61.34375 126.417969 61.289063 126.480469 61.183594 126.480469 "/>
</g>
<g clip-path="url(#clip6)" clip-rule="nonzero">
<path style=" stroke:none;fill-rule:nonzero;fill:rgb(50.59967%,50.999451%,52.49939%);fill-opacity:1;" d="M 76.613281 124.03125 C 76.421875 124.636719 76.144531 125.117188 75.78125 125.464844 C 75.429688 125.792969 74.960938 126.042969 74.375 126.214844 C 73.785156 126.390625 73.082031 126.480469 72.257813 126.480469 L 68.9375 126.480469 C 67.210938 126.480469 66 126.183594 65.3125 125.589844 C 64.597656 124.941406 64.238281 123.785156 64.238281 122.125 C 64.238281 122.019531 64.292969 121.964844 64.402344 121.964844 L 65.675781 121.964844 C 65.796875 121.964844 65.859375 122.019531 65.859375 122.125 C 65.859375 123.234375 66.082031 123.976563 66.527344 124.355469 C 66.742188 124.503906 67.046875 124.617188 67.441406 124.699219 C 67.832031 124.777344 68.332031 124.820313 68.9375 124.820313 L 72.257813 124.820313 C 72.730469 124.820313 73.144531 124.78125 73.503906 124.707031 C 73.863281 124.632813 74.160156 124.53125 74.40625 124.394531 C 74.945313 124.042969 75.214844 123.410156 75.214844 122.492188 L 75.214844 113.867188 C 75.214844 113.730469 75.277344 113.664063 75.398438 113.664063 L 76.691406 113.664063 C 76.828125 113.664063 76.894531 113.730469 76.894531 113.867188 L 76.894531 121.90625 C 76.894531 122.714844 76.800781 123.421875 76.613281 124.03125 "/>
</g>
<g clip-path="url(#clip7)" clip-rule="nonzero">
<path style=" stroke:none;fill-rule:nonzero;fill:rgb(50.59967%,50.999451%,52.49939%);fill-opacity:1;" d="M 106.875 124.394531 C 106.496094 125.230469 105.835938 125.789063 104.890625 126.074219 C 104.890625 126.085938 104.886719 126.09375 104.871094 126.09375 C 104.492188 126.214844 103.992188 126.3125 103.363281 126.378906 C 102.734375 126.445313 101.976563 126.480469 101.085938 126.480469 L 99.183594 126.480469 C 98.292969 126.480469 97.53125 126.445313 96.90625 126.378906 C 96.277344 126.3125 95.765625 126.214844 95.375 126.09375 C 95.363281 126.09375 95.347656 126.085938 95.335938 126.074219 C 94.847656 125.925781 94.445313 125.710938 94.121094 125.425781 C 93.796875 125.144531 93.53125 124.796875 93.332031 124.394531 C 93.140625 123.988281 93.003906 123.46875 92.914063 122.835938 C 92.828125 122.203125 92.785156 121.457031 92.785156 120.609375 L 92.785156 113.867188 C 92.785156 113.730469 92.839844 113.664063 92.945313 113.664063 L 94.222656 113.664063 C 94.34375 113.664063 94.40625 113.730469 94.40625 113.867188 L 94.40625 120.609375 C 94.40625 121.984375 94.53125 122.972656 94.789063 123.566406 C 95.03125 124.117188 95.476563 124.460938 96.125 124.597656 C 96.652344 124.730469 97.671875 124.796875 99.183594 124.796875 L 101.085938 124.796875 C 102.597656 124.796875 103.617188 124.730469 104.144531 124.597656 C 104.789063 124.449219 105.214844 124.105469 105.417969 123.566406 C 105.566406 123.28125 105.664063 122.894531 105.710938 122.398438 C 105.757813 121.90625 105.78125 121.308594 105.78125 120.609375 L 105.78125 113.867188 C 105.78125 113.730469 105.851563 113.664063 105.984375 113.664063 L 107.242188 113.664063 C 107.363281 113.664063 107.421875 113.730469 107.421875 113.867188 L 107.421875 120.609375 C 107.421875 122.324219 107.242188 123.582031 106.875 124.394531 "/>
</g>
<g clip-path="url(#clip8)" clip-rule="nonzero">
<path style=" stroke:none;fill-rule:nonzero;fill:rgb(50.59967%,50.999451%,52.49939%);fill-opacity:1;" d="M 123.703125 126.480469 C 123.636719 126.480469 123.59375 126.460938 123.578125 126.417969 L 113.882813 115.019531 L 113.476563 115.019531 L 113.476563 126.296875 C 113.476563 126.417969 113.414063 126.480469 113.296875 126.480469 L 112.019531 126.480469 C 111.898438 126.480469 111.835938 126.417969 111.835938 126.296875 L 111.835938 113.867188 C 111.835938 113.730469 111.898438 113.664063 112.019531 113.664063 L 114.835938 113.664063 C 114.875 113.664063 114.921875 113.691406 114.976563 113.746094 L 124.046875 124.535156 L 124.046875 113.867188 C 124.046875 113.730469 124.113281 113.664063 124.25 113.664063 L 125.523438 113.664063 C 125.644531 113.664063 125.707031 113.730469 125.707031 113.867188 L 125.707031 126.296875 C 125.707031 126.417969 125.644531 126.480469 125.523438 126.480469 "/>
</g>
<g clip-path="url(#clip9)" clip-rule="nonzero">
<path style=" stroke:none;fill-rule:nonzero;fill:rgb(50.59967%,50.999451%,52.49939%);fill-opacity:1;" d="M 130.582031 126.480469 C 130.472656 126.480469 130.421875 126.417969 130.421875 126.296875 L 130.421875 113.867188 C 130.421875 113.730469 130.472656 113.664063 130.582031 113.664063 L 131.574219 113.664063 C 131.667969 113.664063 131.714844 113.730469 131.714844 113.867188 L 131.714844 126.296875 C 131.714844 126.417969 131.667969 126.480469 131.574219 126.480469 "/>
</g>
<g clip-path="url(#clip10)" clip-rule="nonzero">
<path style=" stroke:none;fill-rule:nonzero;fill:rgb(50.59967%,50.999451%,52.49939%);fill-opacity:1;" d="M 137.492188 113.703125 L 137.515625 113.722656 L 137.492188 113.722656 Z M 144.195313 126.4375 C 144.167969 126.46875 144.128906 126.480469 144.074219 126.480469 L 142.273438 126.480469 C 142.21875 126.480469 142.179688 126.46875 142.152344 126.4375 L 135.792969 113.925781 L 135.792969 113.96875 C 135.765625 113.9375 135.753906 113.898438 135.753906 113.84375 C 135.753906 113.804688 135.769531 113.765625 135.804688 113.722656 C 135.835938 113.683594 135.882813 113.664063 135.933594 113.664063 L 137.394531 113.664063 C 137.460938 113.664063 137.492188 113.671875 137.484375 113.683594 C 137.476563 113.699219 137.480469 113.710938 137.492188 113.722656 L 143.101563 124.71875 L 143.203125 124.71875 L 148.871094 113.703125 C 148.871094 113.675781 148.898438 113.664063 148.953125 113.664063 L 150.410156 113.664063 C 150.480469 113.664063 150.53125 113.683594 150.5625 113.722656 C 150.597656 113.765625 150.613281 113.804688 150.613281 113.84375 C 150.613281 113.898438 150.601563 113.9375 150.574219 113.96875 L 150.574219 113.925781 "/>
</g>
<g clip-path="url(#clip11)" clip-rule="nonzero">
<path style=" stroke:none;fill-rule:nonzero;fill:rgb(50.59967%,50.999451%,52.49939%);fill-opacity:1;" d="M 153.949219 126.480469 C 153.828125 126.480469 153.769531 126.417969 153.769531 126.296875 L 153.769531 113.867188 C 153.769531 113.730469 153.828125 113.664063 153.949219 113.664063 L 164.765625 113.664063 C 164.871094 113.664063 164.925781 113.730469 164.925781 113.867188 L 164.925781 115.140625 C 164.925781 115.277344 164.871094 115.34375 164.765625 115.34375 L 155.410156 115.34375 L 155.410156 119.046875 L 164.460938 119.046875 C 164.566406 119.046875 164.621094 119.117188 164.621094 119.25 L 164.621094 120.527344 C 164.621094 120.664063 164.566406 120.730469 164.460938 120.730469 L 155.410156 120.730469 L 155.410156 124.820313 L 164.765625 124.820313 C 164.871094 124.820313 164.925781 124.878906 164.925781 125 L 164.925781 126.296875 C 164.925781 126.417969 164.871094 126.480469 164.765625 126.480469 "/>
</g>
<g clip-path="url(#clip12)" clip-rule="nonzero">
<path style=" stroke:none;fill-rule:nonzero;fill:rgb(50.59967%,50.999451%,52.49939%);fill-opacity:1;" d="M 178.921875 115.425781 L 171.0625 115.425781 L 171.0625 118.96875 L 178.839844 118.96875 C 180.445313 118.96875 181.25 118.367188 181.25 117.167969 C 181.25 116.003906 180.472656 115.425781 178.921875 115.425781 M 181.9375 126.480469 C 181.816406 126.480469 181.753906 126.417969 181.753906 126.296875 C 181.753906 125.945313 181.773438 125.414063 181.816406 124.695313 C 181.84375 124.347656 181.863281 124.050781 181.875 123.808594 C 181.890625 123.566406 181.898438 123.375 181.898438 123.238281 C 181.898438 122.796875 181.855469 122.421875 181.773438 122.117188 C 181.695313 121.8125 181.585938 121.566406 181.449219 121.378906 C 181.25 121.148438 180.96875 120.984375 180.609375 120.882813 C 180.253906 120.78125 179.8125 120.730469 179.285156 120.730469 L 171.0625 120.730469 L 171.0625 126.296875 C 171.0625 126.417969 171.003906 126.480469 170.882813 126.480469 L 169.585938 126.480469 C 169.464844 126.480469 169.402344 126.417969 169.402344 126.296875 L 169.402344 113.863281 C 169.402344 113.730469 169.464844 113.664063 169.585938 113.664063 L 178.574219 113.664063 C 181.449219 113.664063 182.890625 114.804688 182.890625 117.085938 C 182.890625 117.664063 182.816406 118.160156 182.664063 118.574219 C 182.515625 118.984375 182.289063 119.292969 181.976563 119.492188 C 182.464844 119.710938 182.847656 120.109375 183.132813 120.6875 C 183.253906 120.945313 183.335938 121.242188 183.382813 121.582031 C 183.433594 121.917969 183.457031 122.277344 183.457031 122.652344 L 183.457031 126.296875 C 183.457031 126.417969 183.40625 126.480469 183.3125 126.480469 "/>
</g>
<g clip-path="url(#clip13)" clip-rule="nonzero">
<path style=" stroke:none;fill-rule:nonzero;fill:rgb(50.59967%,50.999451%,52.49939%);fill-opacity:1;" d="M 201.246094 125.75 C 200.925781 126.007813 200.503906 126.191406 199.984375 126.308594 C 199.464844 126.421875 198.84375 126.480469 198.128906 126.480469 L 191.851563 126.480469 C 190.585938 126.480469 189.597656 126.1875 188.898438 125.609375 C 188.074219 124.960938 187.660156 124.015625 187.660156 122.773438 C 187.660156 122.652344 187.714844 122.59375 187.824219 122.59375 L 189.101563 122.59375 C 189.222656 122.59375 189.28125 122.652344 189.28125 122.773438 C 189.296875 123.179688 189.371094 123.523438 189.503906 123.808594 C 189.640625 124.089844 189.863281 124.308594 190.171875 124.457031 C 190.390625 124.5625 190.671875 124.648438 191.023438 124.71875 C 191.375 124.785156 191.785156 124.820313 192.257813 124.820313 L 198.070313 124.820313 C 198.527344 124.820313 198.914063 124.785156 199.222656 124.71875 C 199.535156 124.648438 199.789063 124.554688 199.992188 124.433594 C 200.261719 124.273438 200.453125 124.050781 200.558594 123.765625 C 200.667969 123.484375 200.722656 123.144531 200.722656 122.753906 C 200.722656 121.929688 200.351563 121.371094 199.609375 121.074219 C 199.3125 120.9375 198.917969 120.84375 198.433594 120.789063 C 197.949219 120.734375 197.382813 120.710938 196.734375 120.710938 L 196.246094 120.710938 C 196.070313 120.710938 195.863281 120.714844 195.621094 120.730469 L 194.929688 120.730469 C 194.902344 120.730469 194.871094 120.734375 194.828125 120.738281 C 194.789063 120.746094 194.742188 120.75 194.6875 120.75 L 194.425781 120.75 C 194.140625 120.765625 193.890625 120.769531 193.675781 120.769531 L 193.148438 120.769531 C 191.421875 120.769531 190.132813 120.566406 189.28125 120.164063 C 188.132813 119.625 187.558594 118.625 187.558594 117.167969 C 187.558594 114.832031 188.878906 113.664063 191.507813 113.664063 L 197.90625 113.664063 C 200.796875 113.664063 202.238281 114.898438 202.238281 117.367188 C 202.238281 117.476563 202.191406 117.53125 202.097656 117.53125 L 200.78125 117.53125 C 200.675781 117.53125 200.621094 117.476563 200.621094 117.367188 C 200.605469 116.976563 200.53125 116.636719 200.398438 116.347656 C 200.261719 116.054688 200.039063 115.835938 199.730469 115.6875 C 199.269531 115.457031 198.582031 115.34375 197.664063 115.34375 L 191.46875 115.34375 C 191.050781 115.34375 190.703125 115.378906 190.425781 115.445313 C 190.148438 115.511719 189.929688 115.601563 189.769531 115.707031 C 189.390625 115.953125 189.199219 116.445313 189.199219 117.1875 C 189.199219 117.929688 189.570313 118.449219 190.3125 118.746094 C 190.933594 119.003906 191.886719 119.128906 193.167969 119.128906 L 193.796875 119.128906 C 194.082031 119.128906 194.417969 119.125 194.808594 119.109375 C 194.851563 119.109375 194.894531 119.105469 194.941406 119.101563 C 194.988281 119.09375 195.039063 119.089844 195.09375 119.089844 L 195.355469 119.089844 C 195.597656 119.078125 195.816406 119.070313 196.003906 119.070313 L 196.449219 119.070313 C 197.367188 119.070313 198.164063 119.125 198.839844 119.230469 C 199.511719 119.339844 200.082031 119.496094 200.539063 119.695313 C 201.742188 120.292969 202.34375 121.324219 202.34375 122.796875 C 202.34375 124.15625 201.976563 125.144531 201.246094 125.75 "/>
</g>
<g clip-path="url(#clip14)" clip-rule="nonzero">
<path style=" stroke:none;fill-rule:nonzero;fill:rgb(50.59967%,50.999451%,52.49939%);fill-opacity:1;" d="M 207.433594 126.480469 C 207.324219 126.480469 207.269531 126.417969 207.269531 126.296875 L 207.269531 113.867188 C 207.269531 113.730469 207.324219 113.664063 207.433594 113.664063 L 208.425781 113.664063 C 208.519531 113.664063 208.566406 113.730469 208.566406 113.867188 L 208.566406 126.296875 C 208.566406 126.417969 208.519531 126.480469 208.425781 126.480469 "/>
</g>
<g clip-path="url(#clip15)" clip-rule="nonzero">
<path style=" stroke:none;fill-rule:nonzero;fill:rgb(50.59967%,50.999451%,52.49939%);fill-opacity:1;" d="M 220.453125 115.34375 L 220.453125 126.296875 C 220.453125 126.417969 220.394531 126.480469 220.273438 126.480469 L 218.996094 126.480469 C 218.890625 126.480469 218.835938 126.417969 218.835938 126.296875 L 218.835938 115.34375 L 213.066406 115.34375 C 212.929688 115.34375 212.863281 115.277344 212.863281 115.140625 L 212.863281 113.863281 C 212.863281 113.730469 212.929688 113.664063 213.066406 113.664063 L 226.246094 113.664063 C 226.382813 113.664063 226.449219 113.730469 226.449219 113.863281 L 226.449219 115.140625 C 226.449219 115.277344 226.382813 115.34375 226.246094 115.34375 "/>
</g>
<g clip-path="url(#clip16)" clip-rule="nonzero">
<path style=" stroke:none;fill-rule:nonzero;fill:rgb(50.59967%,50.999451%,52.49939%);fill-opacity:1;" d="M 231.4375 126.480469 C 231.328125 126.480469 231.273438 126.417969 231.273438 126.296875 L 231.273438 113.867188 C 231.273438 113.730469 231.328125 113.664063 231.4375 113.664063 L 232.429688 113.664063 C 232.523438 113.664063 232.570313 113.730469 232.570313 113.867188 L 232.570313 126.296875 C 232.570313 126.417969 232.523438 126.480469 232.429688 126.480469 "/>
</g>
<g clip-path="url(#clip17)" clip-rule="nonzero">
<path style=" stroke:none;fill-rule:nonzero;fill:rgb(92.89856%,12.199402%,14.898682%);fill-opacity:1;" d="M 260.179688 117.085938 C 260.179688 116.734375 260.117188 116.4375 259.996094 116.191406 C 259.875 115.953125 259.679688 115.761719 259.40625 115.628906 C 259.207031 115.53125 258.957031 115.460938 258.660156 115.414063 C 258.363281 115.367188 257.996094 115.34375 257.566406 115.34375 L 250.703125 115.34375 L 250.703125 119.453125 L 257.566406 119.453125 C 258.402344 119.453125 259.015625 119.367188 259.40625 119.191406 L 259.40625 119.210938 C 259.679688 119.078125 259.875 118.878906 259.996094 118.625 C 260.117188 118.367188 260.179688 118.0625 260.179688 117.710938 Z M 257.628906 121.136719 L 250.703125 121.136719 L 250.703125 126.296875 C 250.703125 126.417969 250.636719 126.480469 250.5 126.480469 L 249.144531 126.480469 C 249.019531 126.480469 248.960938 126.417969 248.960938 126.296875 L 248.960938 113.863281 C 248.960938 113.730469 249.019531 113.664063 249.144531 113.664063 L 257.628906 113.664063 C 258.382813 113.664063 259.035156 113.738281 259.589844 113.886719 C 260.144531 114.035156 260.582031 114.265625 260.90625 114.574219 C 261.21875 114.886719 261.460938 115.308594 261.636719 115.839844 C 261.8125 116.375 261.898438 117.019531 261.898438 117.773438 C 261.898438 120.015625 260.472656 121.136719 257.628906 121.136719 "/>
</g>
<g clip-path="url(#clip18)" clip-rule="nonzero">
<path style=" stroke:none;fill-rule:nonzero;fill:rgb(92.89856%,12.199402%,14.898682%);fill-opacity:1;" d="M 278.460938 119.496094 C 278.460938 118.804688 278.433594 118.210938 278.378906 117.710938 C 278.324219 117.214844 278.226563 116.820313 278.074219 116.539063 C 277.886719 115.984375 277.460938 115.632813 276.800781 115.484375 C 276.273438 115.351563 275.253906 115.285156 273.742188 115.285156 L 271.800781 115.285156 C 270.289063 115.285156 269.261719 115.351563 268.722656 115.484375 C 268.074219 115.632813 267.636719 115.984375 267.40625 116.539063 C 267.148438 117.132813 267.019531 118.117188 267.019531 119.496094 L 267.019531 120.605469 C 267.019531 121.984375 267.148438 122.972656 267.40625 123.5625 C 267.648438 124.101563 268.09375 124.449219 268.742188 124.597656 C 269.269531 124.730469 270.289063 124.800781 271.800781 124.800781 L 273.742188 124.800781 C 275.242188 124.800781 276.253906 124.730469 276.78125 124.597656 C 277.441406 124.449219 277.875 124.101563 278.074219 123.5625 C 278.226563 123.28125 278.324219 122.890625 278.378906 122.390625 C 278.433594 121.890625 278.460938 121.296875 278.460938 120.605469 Z M 279.960938 122.8125 C 279.878906 123.449219 279.742188 123.976563 279.554688 124.394531 C 279.351563 124.800781 279.082031 125.144531 278.746094 125.4375 C 278.40625 125.726563 278.007813 125.9375 277.550781 126.074219 L 277.550781 126.09375 C 277.15625 126.214844 276.652344 126.308594 276.03125 126.378906 C 275.410156 126.445313 274.652344 126.480469 273.765625 126.480469 L 271.800781 126.480469 C 269.746094 126.480469 268.324219 126.292969 267.527344 125.914063 C 266.636719 125.519531 266.035156 124.800781 265.726563 123.746094 C 265.617188 123.355469 265.539063 122.808594 265.492188 122.105469 C 265.445313 121.40625 265.421875 120.535156 265.421875 119.496094 C 265.421875 118.644531 265.460938 117.902344 265.53125 117.265625 C 265.605469 116.632813 265.738281 116.113281 265.929688 115.707031 C 266.128906 115.304688 266.398438 114.957031 266.726563 114.664063 C 267.058594 114.375 267.46875 114.148438 267.953125 113.988281 L 267.972656 113.988281 C 268.730469 113.730469 270.003906 113.601563 271.800781 113.601563 L 273.765625 113.601563 C 275.734375 113.601563 277.152344 113.796875 278.015625 114.1875 C 278.445313 114.378906 278.816406 114.65625 279.117188 115.019531 C 279.421875 115.382813 279.648438 115.835938 279.796875 116.375 C 279.878906 116.753906 279.945313 117.292969 280 117.996094 C 280.054688 118.699219 280.082031 119.570313 280.082031 120.605469 C 280.082031 121.445313 280.039063 122.179688 279.960938 122.8125 "/>
</g>
<g clip-path="url(#clip19)" clip-rule="nonzero">
<path style=" stroke:none;fill-rule:nonzero;fill:rgb(92.89856%,12.199402%,14.898682%);fill-opacity:1;" d="M 284.636719 126.480469 C 284.515625 126.480469 284.453125 126.417969 284.453125 126.296875 L 284.453125 113.867188 C 284.453125 113.730469 284.515625 113.664063 284.636719 113.664063 L 285.910156 113.664063 C 286.03125 113.664063 286.09375 113.730469 286.09375 113.867188 L 286.09375 124.820313 L 295.023438 124.820313 C 295.144531 124.820313 295.203125 124.878906 295.203125 125 L 295.203125 126.296875 C 295.203125 126.417969 295.144531 126.480469 295.023438 126.480469 "/>
</g>
<g clip-path="url(#clip20)" clip-rule="nonzero">
<path style=" stroke:none;fill-rule:nonzero;fill:rgb(92.89856%,12.199402%,14.898682%);fill-opacity:1;" d="M 303.960938 120.464844 L 303.960938 126.296875 C 303.960938 126.417969 303.898438 126.480469 303.777344 126.480469 L 302.398438 126.480469 C 302.292969 126.480469 302.238281 126.417969 302.238281 126.296875 L 302.238281 120.464844 L 295.898438 113.988281 C 295.871094 113.972656 295.859375 113.953125 295.859375 113.925781 L 295.859375 113.863281 C 295.859375 113.730469 295.929688 113.664063 296.0625 113.664063 L 297.886719 113.664063 C 297.910156 113.664063 297.933594 113.675781 297.945313 113.703125 L 303.089844 118.96875 L 308.230469 113.703125 C 308.257813 113.675781 308.304688 113.664063 308.371094 113.664063 L 310.175781 113.664063 C 310.28125 113.664063 310.335938 113.730469 310.335938 113.863281 L 310.335938 113.925781 C 310.335938 113.953125 310.324219 113.972656 310.296875 113.988281 "/>
</g>
<path style=" stroke:none;fill-rule:nonzero;fill:rgb(92.89856%,12.199402%,14.898682%);fill-opacity:1;" d="M 310.921875 121.386719 C 310.816406 121.386719 310.761719 121.339844 310.761719 121.246094 L 310.761719 120.214844 C 310.761719 120.117188 310.816406 120.070313 310.921875 120.070313 L 316.371094 120.070313 C 316.464844 120.070313 316.511719 120.117188 316.511719 120.214844 L 316.511719 121.246094 C 316.511719 121.339844 316.464844 121.386719 316.371094 121.386719 "/>
<g clip-path="url(#clip21)" clip-rule="nonzero">
<path style=" stroke:none;fill-rule:nonzero;fill:rgb(92.89856%,12.199402%,14.898682%);fill-opacity:1;" d="M 328.171875 115.34375 L 328.171875 126.296875 C 328.171875 126.417969 328.109375 126.480469 327.988281 126.480469 L 326.710938 126.480469 C 326.605469 126.480469 326.550781 126.417969 326.550781 126.296875 L 326.550781 115.34375 L 320.78125 115.34375 C 320.644531 115.34375 320.578125 115.277344 320.578125 115.140625 L 320.578125 113.863281 C 320.578125 113.730469 320.644531 113.664063 320.78125 113.664063 L 333.960938 113.664063 C 334.09375 113.664063 334.164063 113.730469 334.164063 113.863281 L 334.164063 115.140625 C 334.164063 115.277344 334.09375 115.34375 333.960938 115.34375 "/>
</g>
<g clip-path="url(#clip22)" clip-rule="nonzero">
<path style=" stroke:none;fill-rule:nonzero;fill:rgb(92.89856%,12.199402%,14.898682%);fill-opacity:1;" d="M 337.800781 126.480469 C 337.679688 126.480469 337.617188 126.417969 337.617188 126.296875 L 337.617188 113.867188 C 337.617188 113.730469 337.679688 113.664063 337.800781 113.664063 L 348.613281 113.664063 C 348.71875 113.664063 348.773438 113.730469 348.773438 113.867188 L 348.773438 115.140625 C 348.773438 115.277344 348.71875 115.34375 348.613281 115.34375 L 339.257813 115.34375 L 339.257813 119.046875 L 348.308594 119.046875 C 348.414063 119.046875 348.46875 119.117188 348.46875 119.25 L 348.46875 120.527344 C 348.46875 120.664063 348.414063 120.730469 348.308594 120.730469 L 339.257813 120.730469 L 339.257813 124.820313 L 348.613281 124.820313 C 348.71875 124.820313 348.773438 124.878906 348.773438 125 L 348.773438 126.296875 C 348.773438 126.417969 348.71875 126.480469 348.613281 126.480469 "/>
</g>
<g clip-path="url(#clip23)" clip-rule="nonzero">
<path style=" stroke:none;fill-rule:nonzero;fill:rgb(92.89856%,12.199402%,14.898682%);fill-opacity:1;" d="M 367.578125 122.714844 C 367.59375 122.726563 367.597656 122.753906 367.597656 122.796875 C 367.597656 124.15625 367.167969 125.152344 366.304688 125.773438 C 365.589844 126.242188 364.5 126.480469 363.042969 126.480469 L 358.445313 126.480469 C 357.554688 126.480469 356.789063 126.421875 356.148438 126.308594 C 355.507813 126.191406 354.976563 126.007813 354.558594 125.75 C 354.183594 125.492188 353.867188 125.175781 353.617188 124.789063 C 353.367188 124.402344 353.1875 123.9375 353.082031 123.382813 C 352.960938 122.722656 352.898438 121.402344 352.898438 119.433594 C 352.898438 117.140625 353.316406 115.582031 354.15625 114.757813 L 354.136719 114.757813 C 354.957031 113.945313 356.503906 113.542969 358.769531 113.542969 L 363.023438 113.542969 C 364.535156 113.542969 365.671875 113.84375 366.433594 114.453125 C 367.195313 115.0625 367.578125 115.980469 367.578125 117.207031 L 367.578125 117.246094 C 367.578125 117.367188 367.523438 117.429688 367.417969 117.429688 L 366.140625 117.429688 C 366.019531 117.429688 365.960938 117.367188 365.960938 117.246094 L 365.960938 117.207031 C 365.960938 115.871094 364.980469 115.203125 363.023438 115.203125 L 358.648438 115.203125 C 357.90625 115.203125 357.289063 115.25 356.796875 115.34375 C 356.304688 115.4375 355.914063 115.558594 355.632813 115.707031 C 355.121094 116.019531 354.789063 116.59375 354.640625 117.429688 C 354.585938 117.65625 354.554688 118.039063 354.539063 118.574219 C 354.527344 119.105469 354.519531 119.785156 354.519531 120.609375 C 354.519531 121.5 354.570313 122.230469 354.671875 122.804688 C 354.773438 123.378906 354.917969 123.785156 355.105469 124.027344 C 355.578125 124.570313 356.644531 124.839844 358.304688 124.839844 L 363.023438 124.839844 C 363.980469 124.839844 364.691406 124.726563 365.148438 124.496094 C 365.703125 124.238281 365.980469 123.691406 365.980469 122.855469 L 365.980469 122.796875 C 365.980469 122.671875 366.039063 122.613281 366.160156 122.613281 L 367.457031 122.613281 C 367.472656 122.613281 367.476563 122.617188 367.476563 122.632813 "/>
</g>
<g clip-path="url(#clip24)" clip-rule="nonzero">
<path style=" stroke:none;fill-rule:nonzero;fill:rgb(92.89856%,12.199402%,14.898682%);fill-opacity:1;" d="M 384.179688 126.480469 C 384.074219 126.480469 384.019531 126.417969 384.019531 126.296875 L 384.019531 120.730469 L 373.511719 120.730469 L 373.511719 126.296875 C 373.511719 126.417969 373.449219 126.480469 373.328125 126.480469 L 372.054688 126.480469 C 371.929688 126.480469 371.871094 126.417969 371.871094 126.296875 L 371.871094 113.867188 C 371.871094 113.730469 371.929688 113.664063 372.054688 113.664063 L 373.328125 113.664063 C 373.449219 113.664063 373.511719 113.730469 373.511719 113.867188 L 373.511719 119.046875 L 384.019531 119.046875 L 384.019531 113.867188 C 384.019531 113.730469 384.074219 113.664063 384.179688 113.664063 L 385.476563 113.664063 C 385.585938 113.664063 385.640625 113.730469 385.640625 113.867188 L 385.640625 126.296875 C 385.640625 126.417969 385.585938 126.480469 385.476563 126.480469 "/>
</g>
<g clip-path="url(#clip25)" clip-rule="nonzero">
<path style=" stroke:none;fill-rule:nonzero;fill:rgb(92.89856%,12.199402%,14.898682%);fill-opacity:1;" d="M 417.472656 126.480469 C 417.351563 126.480469 417.289063 126.417969 417.289063 126.296875 L 417.289063 115.019531 L 416.90625 115.019531 L 410.304688 126.441406 C 410.277344 126.464844 410.230469 126.480469 410.164063 126.480469 L 409.289063 126.480469 C 409.265625 126.480469 409.238281 126.472656 409.210938 126.460938 L 402.671875 115.019531 L 402.308594 115.019531 L 402.308594 126.296875 C 402.308594 126.417969 402.246094 126.480469 402.125 126.480469 L 400.808594 126.480469 C 400.6875 126.480469 400.628906 126.417969 400.628906 126.296875 L 400.628906 113.867188 C 400.628906 113.730469 400.6875 113.664063 400.808594 113.664063 L 403.722656 113.664063 C 403.765625 113.664063 403.796875 113.667969 403.828125 113.683594 L 409.757813 124.152344 L 415.871094 113.703125 C 415.898438 113.675781 415.945313 113.664063 416.015625 113.664063 L 418.769531 113.664063 C 418.863281 113.664063 418.910156 113.730469 418.910156 113.867188 L 418.910156 126.296875 C 418.910156 126.417969 418.863281 126.480469 418.769531 126.480469 "/>
</g>
<g clip-path="url(#clip26)" clip-rule="nonzero">
<path style=" stroke:none;fill-rule:nonzero;fill:rgb(92.89856%,12.199402%,14.898682%);fill-opacity:1;" d="M 426.238281 121.863281 L 433.058594 121.863281 L 429.679688 115.140625 Z M 435.550781 126.480469 L 435.429688 126.480469 C 435.429688 126.46875 435.421875 126.445313 435.410156 126.417969 L 435.429688 126.441406 L 433.910156 123.464844 L 425.386719 123.464844 L 423.886719 126.441406 L 423.886719 126.417969 L 423.886719 126.480469 L 422.371094 126.480469 C 422.246094 126.480469 422.1875 126.417969 422.1875 126.296875 L 422.1875 126.277344 C 422.1875 126.25 422.199219 126.222656 422.226563 126.195313 L 422.226563 126.238281 L 428.585938 113.703125 C 428.613281 113.675781 428.652344 113.664063 428.707031 113.664063 L 430.671875 113.664063 C 430.710938 113.664063 430.734375 113.667969 430.742188 113.671875 C 430.75 113.679688 430.757813 113.691406 430.773438 113.703125 L 437.171875 126.238281 L 437.171875 126.195313 C 437.183594 126.222656 437.191406 126.25 437.191406 126.277344 L 437.191406 126.296875 C 437.191406 126.417969 437.136719 126.480469 437.027344 126.480469 "/>
</g>
<g clip-path="url(#clip27)" clip-rule="nonzero">
<path style=" stroke:none;fill-rule:nonzero;fill:rgb(92.89856%,12.199402%,14.898682%);fill-opacity:1;" d="M 450.554688 115.425781 L 442.699219 115.425781 L 442.699219 118.96875 L 450.472656 118.96875 C 452.078125 118.96875 452.882813 118.367188 452.882813 117.167969 C 452.882813 116.003906 452.105469 115.425781 450.554688 115.425781 M 453.570313 126.480469 C 453.449219 126.480469 453.390625 126.417969 453.390625 126.296875 C 453.390625 125.945313 453.40625 125.414063 453.449219 124.695313 C 453.476563 124.347656 453.496094 124.050781 453.507813 123.808594 C 453.523438 123.566406 453.53125 123.375 453.53125 123.238281 C 453.53125 122.796875 453.488281 122.421875 453.40625 122.117188 C 453.328125 121.8125 453.21875 121.566406 453.085938 121.378906 C 452.882813 121.148438 452.601563 120.984375 452.242188 120.882813 C 451.886719 120.78125 451.445313 120.730469 450.917969 120.730469 L 442.699219 120.730469 L 442.699219 126.296875 C 442.699219 126.417969 442.636719 126.480469 442.515625 126.480469 L 441.21875 126.480469 C 441.097656 126.480469 441.035156 126.417969 441.035156 126.296875 L 441.035156 113.863281 C 441.035156 113.730469 441.097656 113.664063 441.21875 113.664063 L 450.210938 113.664063 C 453.085938 113.664063 454.523438 114.804688 454.523438 117.085938 C 454.523438 117.664063 454.449219 118.160156 454.300781 118.574219 C 454.148438 118.984375 453.921875 119.292969 453.609375 119.492188 C 454.097656 119.710938 454.480469 120.109375 454.765625 120.6875 C 454.886719 120.945313 454.972656 121.242188 455.019531 121.582031 C 455.066406 121.917969 455.089844 122.277344 455.089844 122.652344 L 455.089844 126.296875 C 455.089844 126.417969 455.039063 126.480469 454.949219 126.480469 "/>
</g>
<g clip-path="url(#clip28)" clip-rule="nonzero">
<path style=" stroke:none;fill-rule:nonzero;fill:rgb(92.89856%,12.199402%,14.898682%);fill-opacity:1;" d="M 462.253906 121.863281 L 469.074219 121.863281 L 465.695313 115.140625 Z M 471.566406 126.480469 L 471.445313 126.480469 C 471.445313 126.46875 471.4375 126.445313 471.425781 126.417969 L 471.445313 126.441406 L 469.925781 123.464844 L 461.402344 123.464844 L 459.902344 126.441406 L 459.902344 126.417969 L 459.902344 126.480469 L 458.386719 126.480469 C 458.265625 126.480469 458.203125 126.417969 458.203125 126.296875 L 458.203125 126.277344 C 458.203125 126.25 458.21875 126.222656 458.242188 126.195313 L 458.242188 126.238281 L 464.601563 113.703125 C 464.628906 113.675781 464.667969 113.664063 464.722656 113.664063 L 466.6875 113.664063 C 466.726563 113.664063 466.75 113.667969 466.757813 113.671875 C 466.765625 113.679688 466.773438 113.691406 466.789063 113.703125 L 473.1875 126.238281 L 473.1875 126.195313 C 473.199219 126.222656 473.207031 126.25 473.207031 126.277344 L 473.207031 126.296875 C 473.207031 126.417969 473.152344 126.480469 473.046875 126.480469 "/>
</g>
<g clip-path="url(#clip29)" clip-rule="nonzero">
<path style=" stroke:none;fill-rule:nonzero;fill:rgb(50.59967%,50.999451%,52.49939%);fill-opacity:1;" d="M 489.179688 119.554688 L 497.640625 126.238281 C 497.628906 126.238281 497.621094 126.257813 497.621094 126.296875 C 497.621094 126.417969 497.5625 126.480469 497.4375 126.480469 L 495.3125 126.480469 L 487.640625 120.367188 L 485.777344 120.367188 L 485.777344 126.296875 C 485.777344 126.417969 485.714844 126.480469 485.59375 126.480469 L 484.316406 126.480469 C 484.195313 126.480469 484.136719 126.417969 484.136719 126.296875 L 484.136719 113.867188 C 484.136719 113.730469 484.195313 113.664063 484.316406 113.664063 L 485.59375 113.664063 C 485.714844 113.664063 485.777344 113.730469 485.777344 113.867188 L 485.777344 118.824219 L 487.597656 118.824219 L 495.476563 113.664063 L 497.519531 113.664063 C 497.65625 113.664063 497.722656 113.730469 497.722656 113.867188 C 497.722656 113.894531 497.714844 113.925781 497.703125 113.96875 "/>
</g>
<g clip-path="url(#clip30)" clip-rule="nonzero">
<path style=" stroke:none;fill-rule:nonzero;fill:rgb(50.59967%,50.999451%,52.49939%);fill-opacity:1;" d="M 515.902344 124.394531 C 515.523438 125.230469 514.863281 125.789063 513.921875 126.074219 C 513.921875 126.085938 513.914063 126.09375 513.898438 126.09375 C 513.519531 126.214844 513.019531 126.3125 512.390625 126.378906 C 511.761719 126.445313 511.003906 126.480469 510.113281 126.480469 L 508.210938 126.480469 C 507.320313 126.480469 506.558594 126.445313 505.929688 126.378906 C 505.304688 126.3125 504.796875 126.214844 504.402344 126.09375 C 504.390625 126.09375 504.375 126.085938 504.363281 126.074219 C 503.878906 125.925781 503.472656 125.710938 503.148438 125.425781 C 502.824219 125.144531 502.5625 124.796875 502.359375 124.394531 C 502.167969 123.988281 502.03125 123.46875 501.941406 122.835938 C 501.855469 122.203125 501.8125 121.457031 501.8125 120.609375 L 501.8125 113.867188 C 501.8125 113.730469 501.863281 113.664063 501.972656 113.664063 L 503.25 113.664063 C 503.371094 113.664063 503.429688 113.730469 503.429688 113.867188 L 503.429688 120.609375 C 503.429688 121.984375 503.558594 122.972656 503.816406 123.566406 C 504.058594 124.117188 504.503906 124.460938 505.152344 124.597656 C 505.679688 124.730469 506.699219 124.796875 508.210938 124.796875 L 510.113281 124.796875 C 511.625 124.796875 512.644531 124.730469 513.171875 124.597656 C 513.816406 124.449219 514.242188 124.105469 514.445313 123.566406 C 514.59375 123.28125 514.691406 122.894531 514.738281 122.398438 C 514.785156 121.90625 514.808594 121.308594 514.808594 120.609375 L 514.808594 113.867188 C 514.808594 113.730469 514.878906 113.664063 515.011719 113.664063 L 516.269531 113.664063 C 516.390625 113.664063 516.449219 113.730469 516.449219 113.867188 L 516.449219 120.609375 C 516.449219 122.324219 516.269531 123.582031 515.902344 124.394531 "/>
</g>
<g clip-path="url(#clip31)" clip-rule="nonzero">
<path style=" stroke:none;fill-rule:nonzero;fill:rgb(50.59967%,50.999451%,52.49939%);fill-opacity:1;" d="M 523.925781 121.863281 L 530.75 121.863281 L 527.367188 115.140625 Z M 533.238281 126.480469 L 533.117188 126.480469 C 533.117188 126.46875 533.113281 126.445313 533.097656 126.417969 L 533.117188 126.441406 L 531.601563 123.464844 L 523.074219 123.464844 L 521.578125 126.441406 L 521.578125 126.417969 L 521.578125 126.480469 L 520.058594 126.480469 C 519.9375 126.480469 519.878906 126.417969 519.878906 126.296875 L 519.878906 126.277344 C 519.878906 126.25 519.890625 126.222656 519.917969 126.195313 L 519.917969 126.238281 L 526.273438 113.703125 C 526.300781 113.675781 526.34375 113.664063 526.394531 113.664063 L 528.359375 113.664063 C 528.402344 113.664063 528.425781 113.667969 528.429688 113.671875 C 528.4375 113.679688 528.445313 113.691406 528.460938 113.703125 L 534.859375 126.238281 L 534.859375 126.195313 C 534.871094 126.222656 534.878906 126.25 534.878906 126.277344 L 534.878906 126.296875 C 534.878906 126.417969 534.824219 126.480469 534.71875 126.480469 "/>
</g>
<g clip-path="url(#clip32)" clip-rule="nonzero">
<path style=" stroke:none;fill-rule:nonzero;fill:rgb(50.59967%,50.999451%,52.49939%);fill-opacity:1;" d="M 538.699219 126.480469 C 538.578125 126.480469 538.515625 126.417969 538.515625 126.296875 L 538.515625 113.867188 C 538.515625 113.730469 538.578125 113.664063 538.699219 113.664063 L 539.972656 113.664063 C 540.09375 113.664063 540.15625 113.730469 540.15625 113.867188 L 540.15625 124.820313 L 549.085938 124.820313 C 549.207031 124.820313 549.265625 124.878906 549.265625 125 L 549.265625 126.296875 C 549.265625 126.417969 549.207031 126.480469 549.085938 126.480469 "/>
</g>
<g clip-path="url(#clip33)" clip-rule="nonzero">
<path style=" stroke:none;fill-rule:nonzero;fill:rgb(50.59967%,50.999451%,52.49939%);fill-opacity:1;" d="M 556.402344 121.863281 L 563.226563 121.863281 L 559.84375 115.140625 Z M 565.714844 126.480469 L 565.59375 126.480469 C 565.59375 126.46875 565.585938 126.445313 565.574219 126.417969 L 565.59375 126.441406 L 564.074219 123.464844 L 555.550781 123.464844 L 554.054688 126.441406 L 554.054688 126.417969 L 554.054688 126.480469 L 552.535156 126.480469 C 552.414063 126.480469 552.351563 126.417969 552.351563 126.296875 L 552.351563 126.277344 C 552.351563 126.25 552.367188 126.222656 552.394531 126.195313 L 552.394531 126.238281 L 558.75 113.703125 C 558.777344 113.675781 558.816406 113.664063 558.871094 113.664063 L 560.835938 113.664063 C 560.878906 113.664063 560.898438 113.667969 560.90625 113.671875 C 560.914063 113.679688 560.921875 113.691406 560.9375 113.703125 L 567.335938 126.238281 L 567.335938 126.195313 C 567.347656 126.222656 567.355469 126.25 567.355469 126.277344 L 567.355469 126.296875 C 567.355469 126.417969 567.300781 126.480469 567.195313 126.480469 "/>
</g>
<g clip-path="url(#clip34)" clip-rule="nonzero">
<path style=" stroke:none;fill-rule:nonzero;fill:rgb(50.59967%,50.999451%,52.49939%);fill-opacity:1;" d="M 579.8125 126.480469 C 579.691406 126.480469 579.628906 126.417969 579.628906 126.296875 L 579.628906 113.867188 C 579.628906 113.730469 579.691406 113.664063 579.8125 113.664063 L 581.085938 113.664063 C 581.207031 113.664063 581.269531 113.730469 581.269531 113.867188 L 581.269531 124.820313 L 590.199219 124.820313 C 590.320313 124.820313 590.378906 124.878906 590.378906 125 L 590.378906 126.296875 C 590.378906 126.417969 590.320313 126.480469 590.199219 126.480469 "/>
</g>
<g clip-path="url(#clip35)" clip-rule="nonzero">
<path style=" stroke:none;fill-rule:nonzero;fill:rgb(50.59967%,50.999451%,52.49939%);fill-opacity:1;" d="M 607.875 124.394531 C 607.496094 125.230469 606.835938 125.789063 605.890625 126.074219 C 605.890625 126.085938 605.882813 126.09375 605.871094 126.09375 C 605.492188 126.214844 604.988281 126.3125 604.359375 126.378906 C 603.734375 126.445313 602.976563 126.480469 602.085938 126.480469 L 600.179688 126.480469 C 599.289063 126.480469 598.53125 126.445313 597.902344 126.378906 C 597.273438 126.3125 596.765625 126.214844 596.375 126.09375 C 596.359375 126.09375 596.347656 126.085938 596.335938 126.074219 C 595.847656 125.925781 595.441406 125.710938 595.117188 125.425781 C 594.796875 125.144531 594.53125 124.796875 594.328125 124.394531 C 594.140625 123.988281 594.003906 123.46875 593.914063 122.835938 C 593.824219 122.203125 593.78125 121.457031 593.78125 120.609375 L 593.78125 113.867188 C 593.78125 113.730469 593.835938 113.664063 593.945313 113.664063 L 595.21875 113.664063 C 595.339844 113.664063 595.402344 113.730469 595.402344 113.867188 L 595.402344 120.609375 C 595.402344 121.984375 595.53125 122.972656 595.785156 123.566406 C 596.027344 124.117188 596.476563 124.460938 597.121094 124.597656 C 597.648438 124.730469 598.667969 124.796875 600.179688 124.796875 L 602.085938 124.796875 C 603.597656 124.796875 604.613281 124.730469 605.140625 124.597656 C 605.789063 124.449219 606.214844 124.105469 606.417969 123.566406 C 606.566406 123.28125 606.664063 122.894531 606.710938 122.398438 C 606.757813 121.90625 606.78125 121.308594 606.78125 120.609375 L 606.78125 113.867188 C 606.78125 113.730469 606.847656 113.664063 606.984375 113.664063 L 608.238281 113.664063 C 608.359375 113.664063 608.421875 113.730469 608.421875 113.867188 L 608.421875 120.609375 C 608.421875 122.324219 608.238281 123.582031 607.875 124.394531 "/>
</g>
<g clip-path="url(#clip36)" clip-rule="nonzero">
<path style=" stroke:none;fill-rule:nonzero;fill:rgb(50.59967%,50.999451%,52.49939%);fill-opacity:1;" d="M 629.679688 126.480469 C 629.558594 126.480469 629.496094 126.417969 629.496094 126.296875 L 629.496094 115.019531 L 629.113281 115.019531 L 622.511719 126.441406 C 622.484375 126.464844 622.4375 126.480469 622.371094 126.480469 L 621.5 126.480469 C 621.472656 126.480469 621.445313 126.472656 621.421875 126.460938 L 614.878906 115.019531 L 614.515625 115.019531 L 614.515625 126.296875 C 614.515625 126.417969 614.453125 126.480469 614.332031 126.480469 L 613.015625 126.480469 C 612.894531 126.480469 612.835938 126.417969 612.835938 126.296875 L 612.835938 113.867188 C 612.835938 113.730469 612.894531 113.664063 613.015625 113.664063 L 615.933594 113.664063 C 615.972656 113.664063 616.007813 113.667969 616.035156 113.683594 L 621.964844 124.152344 L 628.078125 113.703125 C 628.105469 113.675781 628.15625 113.664063 628.222656 113.664063 L 630.976563 113.664063 C 631.070313 113.664063 631.117188 113.730469 631.117188 113.867188 L 631.117188 126.296875 C 631.117188 126.417969 631.070313 126.480469 630.976563 126.480469 "/>
</g>
<g clip-path="url(#clip37)" clip-rule="nonzero">
<path style=" stroke:none;fill-rule:nonzero;fill:rgb(50.59967%,50.999451%,52.49939%);fill-opacity:1;" d="M 646.808594 117.085938 C 646.808594 116.734375 646.746094 116.4375 646.628906 116.191406 C 646.503906 115.953125 646.3125 115.761719 646.039063 115.628906 C 645.839844 115.53125 645.589844 115.460938 645.289063 115.414063 C 644.996094 115.367188 644.628906 115.34375 644.199219 115.34375 L 637.335938 115.34375 L 637.335938 119.453125 L 644.199219 119.453125 C 645.035156 119.453125 645.648438 119.367188 646.039063 119.191406 L 646.039063 119.210938 C 646.3125 119.078125 646.503906 118.878906 646.628906 118.625 C 646.746094 118.367188 646.808594 118.0625 646.808594 117.710938 Z M 644.257813 121.136719 L 637.335938 121.136719 L 637.335938 126.296875 C 637.335938 126.417969 637.265625 126.480469 637.132813 126.480469 L 635.773438 126.480469 C 635.652344 126.480469 635.59375 126.417969 635.59375 126.296875 L 635.59375 113.863281 C 635.59375 113.730469 635.652344 113.664063 635.773438 113.664063 L 644.257813 113.664063 C 645.015625 113.664063 645.667969 113.738281 646.222656 113.886719 C 646.777344 114.035156 647.214844 114.265625 647.539063 114.574219 C 647.847656 114.886719 648.089844 115.308594 648.269531 115.839844 C 648.441406 116.375 648.53125 117.019531 648.53125 117.773438 C 648.53125 120.015625 647.105469 121.136719 644.257813 121.136719 "/>
</g>
<g clip-path="url(#clip38)" clip-rule="nonzero">
<path style=" stroke:none;fill-rule:nonzero;fill:rgb(50.59967%,50.999451%,52.49939%);fill-opacity:1;" d="M 666.1875 124.394531 C 665.808594 125.230469 665.144531 125.789063 664.203125 126.074219 C 664.203125 126.085938 664.195313 126.09375 664.179688 126.09375 C 663.804688 126.214844 663.300781 126.3125 662.671875 126.378906 C 662.046875 126.445313 661.285156 126.480469 660.394531 126.480469 L 658.492188 126.480469 C 657.601563 126.480469 656.839844 126.445313 656.214844 126.378906 C 655.585938 126.3125 655.078125 126.214844 654.6875 126.09375 C 654.671875 126.09375 654.65625 126.085938 654.644531 126.074219 C 654.160156 125.925781 653.753906 125.710938 653.429688 125.425781 C 653.105469 125.144531 652.84375 124.796875 652.640625 124.394531 C 652.449219 123.988281 652.3125 123.46875 652.226563 122.835938 C 652.136719 122.203125 652.09375 121.457031 652.09375 120.609375 L 652.09375 113.867188 C 652.09375 113.730469 652.148438 113.664063 652.253906 113.664063 L 653.53125 113.664063 C 653.652344 113.664063 653.714844 113.730469 653.714844 113.867188 L 653.714844 120.609375 C 653.714844 121.984375 653.839844 122.972656 654.097656 123.566406 C 654.339844 124.117188 654.789063 124.460938 655.433594 124.597656 C 655.960938 124.730469 656.980469 124.796875 658.492188 124.796875 L 660.394531 124.796875 C 661.90625 124.796875 662.925781 124.730469 663.453125 124.597656 C 664.101563 124.449219 664.523438 124.105469 664.730469 123.566406 C 664.875 123.28125 664.972656 122.894531 665.023438 122.398438 C 665.070313 121.90625 665.09375 121.308594 665.09375 120.609375 L 665.09375 113.867188 C 665.09375 113.730469 665.160156 113.664063 665.296875 113.664063 L 666.550781 113.664063 C 666.671875 113.664063 666.730469 113.730469 666.730469 113.867188 L 666.730469 120.609375 C 666.730469 122.324219 666.550781 123.582031 666.1875 124.394531 "/>
</g>
<g clip-path="url(#clip39)" clip-rule="nonzero">
<path style=" stroke:none;fill-rule:nonzero;fill:rgb(50.59967%,50.999451%,52.49939%);fill-opacity:1;" d="M 679.65625 115.425781 L 671.800781 115.425781 L 671.800781 118.96875 L 679.574219 118.96875 C 681.179688 118.96875 681.984375 118.367188 681.984375 117.167969 C 681.984375 116.003906 681.207031 115.425781 679.65625 115.425781 M 682.671875 126.480469 C 682.550781 126.480469 682.488281 126.417969 682.488281 126.296875 C 682.488281 125.945313 682.507813 125.414063 682.550781 124.695313 C 682.578125 124.347656 682.597656 124.050781 682.609375 123.808594 C 682.625 123.566406 682.632813 123.375 682.632813 123.238281 C 682.632813 122.796875 682.589844 122.421875 682.507813 122.117188 C 682.429688 121.8125 682.320313 121.566406 682.183594 121.378906 C 681.984375 121.148438 681.703125 120.984375 681.34375 120.882813 C 680.988281 120.78125 680.546875 120.730469 680.019531 120.730469 L 671.800781 120.730469 L 671.800781 126.296875 C 671.800781 126.417969 671.738281 126.480469 671.617188 126.480469 L 670.320313 126.480469 C 670.199219 126.480469 670.136719 126.417969 670.136719 126.296875 L 670.136719 113.863281 C 670.136719 113.730469 670.199219 113.664063 670.320313 113.664063 L 679.308594 113.664063 C 682.183594 113.664063 683.621094 114.804688 683.621094 117.085938 C 683.621094 117.664063 683.550781 118.160156 683.398438 118.574219 C 683.253906 118.984375 683.023438 119.292969 682.710938 119.492188 C 683.199219 119.710938 683.582031 120.109375 683.867188 120.6875 C 683.988281 120.945313 684.070313 121.242188 684.117188 121.582031 C 684.167969 121.917969 684.191406 122.277344 684.191406 122.652344 L 684.191406 126.296875 C 684.191406 126.417969 684.140625 126.480469 684.050781 126.480469 "/>
</g>
</g>
</svg>
